<?xml version="1.0" encoding="UTF-8" standalone="no"?>
<!-- Created with Inkscape (http://www.inkscape.org/) -->

<svg
   width="128.42041mm"
   height="17.876675mm"
   viewBox="0 0 128.42041 17.876675"
   version="1.1"
   id="svg1"
   xml:space="preserve"
   xmlns="http://www.w3.org/2000/svg"
   xmlns:svg="http://www.w3.org/2000/svg"><defs
     id="defs1" /><g
     id="layer5"
     style="display:inline"
     transform="translate(-41.685137,-140.98076)"><path
       style="display:inline;fill:none;fill-opacity:1;stroke:#414141;stroke-width:1;stroke-dasharray:none;stroke-opacity:1"
       d="m 63.885215,142.35997 h 3.228261 v 2.40537 H 63.44212"
       id="path34" /><path
       style="display:inline;fill:none;fill-opacity:1;stroke:#414141;stroke-width:1;stroke-dasharray:none;stroke-opacity:1"
       d="m 56.684462,148.78709 h 10.634271 v 2.37372 H 56.716112"
       id="path35" /><path
       style="display:inline;fill:none;fill-opacity:1;stroke:#414141;stroke-width:1;stroke-dasharray:none;stroke-opacity:1"
       d="m 63.868924,155.46291 h 3.734654 v 2.46867 h -4.0195"
       id="path36" /><path
       style="fill:none;fill-opacity:1;stroke:#414141;stroke-width:1;stroke-dasharray:none;stroke-opacity:1"
       d="m 51.300227,146.82674 v -4.2094 h 2.437022 v 6.29827 h -9.336632 v -6.29827 h -2.21548 v 15.38171 h 2.27878 v -6.86796 h 9.210033 v 6.74136 h -2.373723 v -4.71579"
       id="path20-8-7" /><path
       style="fill:none;fill-opacity:1;stroke:#414141;stroke-width:1;stroke-dasharray:none;stroke-opacity:1"
       d="m 76.042347,149.45365 1.48753,-4.0195 2.373716,6.10838 -7.057856,-0.0316 3.44981,-9.21004 h 2.500316 l 5.665283,15.25511 h -2.43702 l -1.45588,-3.8296 h -8.545399 l -1.39258,3.92455 h 2.46867 l 0.72794,-2.05722"
       id="path22-0-14" /><path
       style="fill:none;fill-opacity:1;stroke:#ff5d5d;stroke-width:1;stroke-dasharray:none;stroke-opacity:1"
       d="m 56.616727,151.36421 3.945548,3.81894"
       id="path24-7-0" /><path
       style="fill:none;fill-opacity:1;stroke:#ff5d5d;stroke-width:1;stroke-dasharray:none;stroke-opacity:1"
       d="m 56.372726,148.75703 4.197926,-4.33708"
       id="path24-5-9" /><circle
       style="fill:none;fill-opacity:1;stroke:#ff5d5d;stroke-width:1;stroke-dasharray:none;stroke-opacity:1"
       id="path26-0-3-7"
       cx="-62.383377"
       cy="143.27113"
       r="1.7903726"
       transform="scale(-1,1)" /><circle
       style="fill:none;fill-opacity:1;stroke:#ff5d5d;stroke-width:1;stroke-dasharray:none;stroke-opacity:1"
       id="path26-0-9-21"
       cx="-62.171227"
       cy="156.56706"
       r="1.7903726"
       transform="scale(-1,1)" /><circle
       style="fill:none;fill-opacity:1;stroke:#414141;stroke-width:1;stroke-dasharray:none;stroke-opacity:1"
       id="path26-1-8"
       cx="-55.407806"
       cy="150.14932"
       r="1.7903726"
       transform="scale(-1,1)" /><path
       style="fill:none;fill-opacity:1;stroke:#414141;stroke-width:1;stroke-dasharray:none;stroke-opacity:1"
       d="m 94.316526,152.19651 c 0,0 4.74744,-0.44124 4.74744,-4.74745 0,-4.88061 -4.81073,-5.12724 -4.81073,-5.12724 h -5.31714 v 15.44502 h 1.89898 l 0.1899,-7.65921 c 0,0 5.82352,0.5697 5.82352,-2.84846 0,-3.41816 -5.76022,-2.72187 -5.76022,-2.72187 l -10e-6,3.35486"
       id="path45-5" /><path
       style="fill:none;fill-opacity:1;stroke:#ff5d5d;stroke-width:1;stroke-dasharray:none;stroke-opacity:1"
       d="m 105.5838,151.31032 c 0,0 -3.67136,-1.26599 -3.03837,-5.38044 0.63299,-4.11445 7.15281,-4.49424 9.11509,-2.84846 l -0.52563,1.96167 c 0,0 -5.1713,-1.77177 -6.12079,0.82349 -0.94948,2.59527 1.58248,3.35486 4.24105,5.19054 2.65857,1.83568 0.5064,4.81074 -1.70908,4.81074 -2.21547,0 -4.68414,-1.32928 -4.68414,-1.32928 l -0.60899,2.27279 c 0,0 6.15975,3.25263 9.40758,-0.50041 2.84847,-3.29156 0.1266,-6.70973 -2.65856,-7.91241"
       id="path46-0" /><path
       style="fill:none;fill-opacity:1;stroke:#ff5d5d;stroke-width:1;stroke-dasharray:none;stroke-opacity:1"
       d="m 117.54735,144.7272 h -2.21547 v -2.34207 h 4.30434 v 15.50831 h 2.40538 v -15.57162 h 4.17775 v 2.46868 h -2.27878"
       id="path47-5" /><path
       style="fill:none;fill-opacity:1;stroke:#ff5d5d;stroke-width:1;stroke-dasharray:none;stroke-opacity:1"
       d="m 133.01921,149.5384 1.48753,-4.0195 2.37372,6.10838 -7.05786,-0.0316 3.44981,-9.21004 h 2.50032 l 5.66528,15.25511 h -2.43702 l -1.45588,-3.8296 h -8.5454 l -1.39258,3.92455 h 2.46867 l 0.72794,-2.05722"
       id="path22-0-2-8" /><path
       style="fill:none;fill-opacity:1;stroke:#ff5d5d;stroke-width:1;stroke-dasharray:none;stroke-opacity:1"
       d="m 160.93354,144.65462 h -2.21547 v -2.34207 h 4.30434 v 15.50831 h 2.40538 v -15.57162 h 4.17775 v 2.46868 h -2.27878"
       id="path47-3-9" /><path
       style="fill:none;fill-opacity:1;stroke:#ff5d5d;stroke-width:1;stroke-dasharray:none;stroke-opacity:1"
       d="m 147.23469,147.82886 v -3.29156 c 0,0 6.01343,-1.26599 6.01343,2.78517 0,0 0.44309,2.40537 -3.03836,2.46867 l 5.95012,7.9124 h -2.78516 l -6.14003,-7.9124 v 7.9757 h -2.15217 v -15.38171 h 5.57033 c 0,0 4.93734,0.1266 4.81074,4.55754 0,0 0.4431,2.65857 -1.64578,4.05115"
       id="path48-1" /></g></svg>
